<?xml version="1.0" encoding="UTF-8"?>
<svg id="Layer_2" data-name="Layer 2" xmlns="http://www.w3.org/2000/svg" version="1.1" viewBox="0 0 750.7 321.7">
  <defs>
    <style>
      .cls-1 {
        fill: #ef0303;
      }

      .cls-1, .cls-2 {
        stroke-width: 0px;
      }

      .cls-2 {
        fill: #fff;
      }
    </style>
  </defs>
  <g>
    <path class="cls-1" d="M307.5,309.8h0c0-19.8-.2-39.3.1-58.9.1-6.3,2.8-11.7,7-14.9,2.4-1.8,2.9-3.9,2.9-7.3,0-40.2,0-80.3,0-120.4s-.1-3.4-.2-5.7c-12.6,7.1-24.7,13.8-36.7,20.9-3.1,1.9-5.9,2.1-9.2,1.1-30.7-9.1-61.7-14.7-93.1-15.6-37.4-1.1-74.3,4.8-110.8,15.6-3.4,1-6.3.7-9.6-1.2-12.8-7.6-25.7-14.7-38.5-22-3.2-1.8-6.6-3.7-10.1-5.7.6-.6.8-.9,1-1C62.5,65.1,114.7,35.5,167,6.1c1.6-.9,4-.6,5.6.3,51.2,28.8,102.3,57.9,153.4,86.7,3,1.7,3.9,3.5,3.9,7.8-.1,42.5-.1,84.9,0,127.4,0,2.2.7,5.3,1.8,6.3,5.8,5.2,8.3,12.2,8.3,21.4,0,16.3,0,32.7,0,49.1s-.2,3-.2,4.5h-32s-.3.2-.3.2Z"/>
    <path class="cls-1" d="M272.6,223h0c-69-21.6-137.6-21.4-206.2,0v-87c68.8-21.8,137.5-21.8,206.2,0v87s0,0,0,0Z"/>
  </g>
  <g>
    <path class="cls-2" d="M361.1,139.7c-5.6,0-9.8-2-9.8-6.3s.5-3.5,1.8-6.3c2.3-4.8,7.9-9.7,17.1-14.8l-.3-4c1.3-1.6,2.8-3.1,4.2-4.4h.6c.2,8.3.2,16.7.3,25,0,3.8.4,6.2,2,7.6,1.2,1.1,3.3,1.4,5.6,1.4h1.3v6.9h-1.2c-5.3,0-9.1-1.4-11.1-7.5-3.1,1.3-6.5,2.4-10.6,2.4h.1ZM370.6,118.3c-9.6,4.9-14.6,8.9-14.6,11.8s3.2,3,6.9,3,4.8-.5,8-1.5l-.3-13.3h0ZM364.2,99.3c-2.2-2.1-4.1-3.8-6.3-5.6,1.4-1.9,2.9-3.7,4.2-5.1,2.2,1.7,4,3.5,6.1,5.8-1.5,2.2-2.6,3.5-4.1,4.9h0ZM374.6,98.7c-2.2-2.1-4.1-3.8-6.3-5.6,1.4-1.9,2.9-3.7,4.2-5.1,2.2,1.7,4,3.5,6.1,5.8-1.5,2.2-2.6,3.5-4.1,4.9h0Z"/>
    <path class="cls-2" d="M385.2,138c4.1,0,8.4-1.7,9.2-4.7l1.6-5.8,3.7-2.7.3.4c-.8,2.7-1.2,5-1.2,6.2,0,1.9.5,3.4,1.8,4.5,1.7,1.4,3.8,2.1,6.7,2.1h1v6.9h-1.2c-5.3,0-9.2-1.4-11.1-5.5h-.2c-1.8,3.6-6.1,5.5-10.7,5.5h-1c-3,0-3.8-2.1-3.8-3.6s.9-3.3,3.8-3.3h1.2-.1ZM395.1,155c2.2,1.6,4.4,3.5,6.5,5.8-1.2,1.9-2.6,3.7-4.5,5.3-2.1-2-4.2-3.7-6.3-5.5,1.5-1.9,2.9-3.8,4.4-5.5h0Z"/>
    <path class="cls-2" d="M440.2,127.9c-6.2-2.3-11.9-3.8-16.9-3.8s-5.3,1-6.8,2.7l.6,2.7-1.6,4.8h-.5l-2.6-7.1c.4-6,5.2-9.7,11.7-9.7s9.1,1.2,17.6,4.6c2.6,1,5.8,1.8,9.2,1.8h4.8c0,0-3.3,5.6-3.3,5.6-4.3,0-7.3.9-9.1,2l-9,5.9c-7.5,4.8-14.9,7.2-23.6,7.2h-2.5c-3,0-3.8-2.1-3.8-3.6s.9-3.3,3.8-3.3h3.3c8.7,0,17.6-3.1,28.7-9.7v-.2h0ZM426.8,99c2.2,1.6,4.4,3.5,6.5,5.8-1.2,1.9-2.6,3.7-4.5,5.3-2.1-2-4.2-3.7-6.3-5.5,1.5-1.9,2.9-3.8,4.4-5.5h0ZM446.3,131.7h.2c.2,4.6,4,6.3,9.5,6.3h1.5v6.9h-1.7c-6.9,0-11.5-2.4-11.5-8.9s0-2,.2-3l1.9-1.3h0Z"/>
    <path class="cls-2" d="M458.6,138c4.1,0,8.4-1.7,9.2-4.7l1.6-5.8,3.7-2.7.3.4c-.8,2.7-1.2,5-1.2,6.2,0,1.9.5,3.4,1.8,4.5,1.7,1.4,3.8,2.1,6.7,2.1h1v6.9h-1.2c-5.3,0-9.2-1.4-11.1-5.5h-.2c-1.8,3.6-6.1,5.5-10.7,5.5h-1c-3,0-3.8-2.1-3.8-3.6s.9-3.3,3.8-3.3h1.2-.1ZM467.9,105.4c2.2,1.6,4.4,3.5,6.5,5.8-1.2,1.9-2.6,3.7-4.5,5.3-2.1-2-4.2-3.7-6.3-5.5,1.5-1.9,2.9-3.8,4.4-5.5h0Z"/>
    <path class="cls-2" d="M482.8,138c1.7,0,3.7-.2,6-1.4,1.9-1.1,2.8-3,2.8-5.8-.1-8.6-.7-18-1.6-27.9-.2-2.5-.5-4.7-.5-6.7s.5-2.4,1.6-3.6c.8-.9,1.8-1.9,3-2.9l.4.3c-.1,3.5,1.6,7.7,4.3,12.3-1,.9-2.1,1.8-3.4,2.7.2,6.2.7,12.7.7,18.6s-.6,10.3-2.2,13.5c-1.1,2.7-2.4,5-4.9,6.2-2.1,1.1-4.6,1.6-6.7,1.6h-.8c-3,0-3.8-2.1-3.8-3.6s.9-3.3,3.8-3.3h1.3Z"/>
    <path class="cls-2" d="M508.1,145.7c.5-3.4.6-7.2.6-10.7v-5.3c0-9.8-1.1-24.1-1.9-33.4,1.5-1.9,3.6-4.2,5.3-5.7l.5.2c1.1,11.7,1.4,25.3,1.4,37.8s-.1,6.5-.4,8.9c-.2,2.9-1.6,5.2-4.7,8.6l-.7-.4h-.1Z"/>
    <path class="cls-2" d="M555.4,139.7c-5.6,0-9.8-2-9.8-6.3s.5-3.5,1.8-6.3c2.3-4.8,7.9-9.7,17.1-14.8l-.3-4c1.3-1.6,2.8-3.1,4.2-4.4h.6c.2,8.3.2,16.7.3,25,0,3.8.4,6.2,2,7.6,1.2,1.1,3.3,1.4,5.6,1.4h1.3v6.9h-1.2c-5.3,0-9.1-1.4-11.1-7.5-3.1,1.3-6.5,2.4-10.6,2.4h0ZM564.9,118.3c-9.6,4.9-14.6,8.9-14.6,11.8s3.2,3,6.9,3,4.8-.5,8-1.5l-.3-13.3h0ZM558.6,99.3c-2.2-2.1-4.1-3.8-6.3-5.6,1.4-1.9,2.9-3.7,4.2-5.1,2.2,1.7,4,3.5,6.1,5.8-1.5,2.2-2.6,3.5-4.1,4.9h.1ZM568.9,98.7c-2.2-2.1-4.1-3.8-6.3-5.6,1.4-1.9,2.9-3.7,4.2-5.1,2.2,1.7,4,3.5,6.1,5.8-1.5,2.2-2.6,3.5-4.1,4.9h.1Z"/>
    <path class="cls-2" d="M580.6,138c4.6,0,8.4-.2,14.1-2.7v-.2c-2.5-1.7-5-4.6-7.5-6.9-1.3-1.2-2.8-2.3-3.7-2.3h-1.8c0,0,2.1-6.3,2.1-6.3l1.7-.2c4.2-.9,9.1-1.8,14.4-1.8s11.6,1,15.6,2.7l-1.9,5.8-9.3,8.6v.2c3.6,1.9,7.7,2.9,12.2,2.9h2.2v6.9h-1.6c-6,0-12.7-2.3-17.9-6.3h-.2c-6.6,4.8-12.3,6.3-18.8,6.3h-1.7c-3,0-3.8-2.1-3.8-3.6s.9-3.3,3.8-3.3h2.3l-.2.2ZM600.1,132.7c3.2-2.3,6.5-4.7,9.9-8v-.2c-3-.7-6.2-1.3-10-1.3s-6.8.4-9.9,1v.2c1,.9,2,2,3.2,3.1,1.8,1.7,4.1,3.5,6.7,5.3h.2-.1Z"/>
    <path class="cls-2" d="M619.7,138c4,0,7.1-2.7,9-9.5.6-2.2,2-4.3,4-6.5,2-1.8,4.2-3.1,6.8-3.1,6.5,0,10.4,9,11.3,18.4-1.1,4.9-3.1,6.9-5.7,6.9-5.3,0-10.6-2.4-16-6.3h-.4c-1.4,4.7-4.5,7-9.3,7h-.9c-3,0-3.8-2.1-3.8-3.6s.9-3.3,3.8-3.3h1.2ZM638.5,135.7c2,.9,4.2,1.6,6.4,1.6s1.5-.1,1.7-.6c-1.6-8.1-5.1-11.7-8.5-11.7s-5.6,1.7-7.2,5.3c1.6,2.4,4.3,4.1,7.6,5.5h0Z"/>
    <path class="cls-2" d="M673.9,144.7h-.6c-4.2,0-7-.9-9.2-3.1-3.3-3.3-3.3-7.1-3.3-15s-.6-20.9-1.4-32.3c1.8-2,3.5-3.8,5-5l.4.2c.9,11.8.9,25.7.9,38.9v3.1c0,3.4,1.9,5,4,5.8,1.3.5,2.7.6,3.4.6h.8v6.9h0Z"/>
    <path class="cls-2" d="M677.2,138c8.7,0,17.6-3.1,28.7-9.7v-.2c-6.2-2.3-11.9-3.8-16.8-3.8s-5.3,1-6.8,2.7l.6,2.7-1.6,4.8h-.5l-2.6-7.1c.4-6,5.2-9.7,11.7-9.7s9.2,1.3,17.6,4.7c2.6,1,5.8,1.7,9.2,1.7h4.5l-2.8,5.6c-4.5,0-7.5.9-9.3,2l-9,5.9c-7.2,4.7-14.9,7.2-23.3,7.2h-2.8c-3,0-3.8-2.1-3.8-3.6s.9-3.3,3.8-3.3h3.3-.1ZM693.6,152.7c2.2,1.6,4.3,3.5,6.5,5.8-1.2,1.9-2.6,3.7-4.5,5.3-2.1-2-4.2-3.7-6.3-5.5,1.5-1.9,2.9-3.8,4.3-5.5h0Z"/>
    <path class="cls-2" d="M359.9,226.7v-39.5h25.7v4.8h-20.5v12.5h19.5v4.8h-19.5v12.7h20.5v4.8h-25.7Z"/>
    <path class="cls-2" d="M391.5,226.7v-40.1h4.9v40.1h-4.9Z"/>
    <path class="cls-2" d="M404,193.7v-6.4h4.9v6.4h-4.9ZM404,226.7v-28.6h4.9v28.6h-4.9Z"/>
    <path class="cls-2" d="M428.2,227.2c-2.8,0-4.9-.8-6.4-2.4-1.5-1.6-2.2-3.8-2.2-6.7v-15.1h-5.2v-4.7h1.1c1.3,0,2.3-.4,3-1.2s1.1-1.8,1.1-3.1v-2.3h4.9v6.6h6.4v4.7h-6.4v14.9c0,.9,0,1.8.5,2.5.3.7.8,1.3,1.5,1.7s1.6.6,2.8.6.6,0,.9,0,.7,0,1-.1v4.4c-.5.1-1,.2-1.5.2h-1.5Z"/>
    <path class="cls-2" d="M449.9,227.5c-2.8,0-5.2-.6-7.4-2-2.2-1.3-3.9-3.1-5.1-5.4s-1.9-4.8-1.9-7.7.6-5.4,1.8-7.6c1.2-2.2,2.9-4,5-5.3s4.5-1.9,7.1-1.9,4,.4,5.6,1.1,3,1.8,4.2,3.1,2,2.8,2.6,4.4.9,3.4.9,5.1,0,.8,0,1.3-.1.9-.2,1.4h-23.4v-4.2h20.6l-2.3,1.9c.3-1.8.1-3.5-.5-4.9s-1.7-2.6-3-3.4c-1.3-.9-2.8-1.3-4.5-1.3s-3.2.4-4.6,1.3-2.5,2.1-3.2,3.6-1.1,3.4-.9,5.6c0,2.1.2,3.9,1,5.5s1.9,2.8,3.4,3.7,3.1,1.3,4.8,1.3,3.5-.4,4.8-1.3c1.3-.9,2.4-2,3.2-3.4l4.1,2.1c-.6,1.3-1.4,2.5-2.6,3.6s-2.6,1.9-4.2,2.6c-1.6.6-3.4.9-5.4.9h0Z"/>
    <path class="cls-2" d="M493.4,227.5c-2.9,0-5.4-.6-7.6-1.8-2.2-1.2-3.9-2.9-5.1-5-1.2-2.1-1.8-4.5-1.8-7.2v-26.2h5.2v26.1c0,1.8.4,3.4,1.2,4.8.8,1.4,1.9,2.5,3.3,3.3s3,1.2,4.8,1.2,3.5-.4,4.8-1.2c1.4-.8,2.5-1.9,3.3-3.3.8-1.4,1.2-3,1.2-4.8v-26.1h5.2v26.2c0,2.7-.6,5.1-1.8,7.2-1.2,2.1-2.9,3.8-5.1,5-2.2,1.2-4.7,1.8-7.6,1.8h0Z"/>
    <path class="cls-2" d="M515.9,226.7v-28.6h4.8v5.6l-.8-.5c.7-1.8,1.8-3.2,3.4-4.2,1.6-1,3.4-1.5,5.5-1.5s3.9.5,5.5,1.4,2.9,2.2,3.8,3.8c.9,1.6,1.4,3.5,1.4,5.5v18.5h-5v-16.9c0-1.6-.3-2.9-.8-4s-1.4-1.9-2.4-2.6c-1-.6-2.2-.9-3.6-.9s-2.5.3-3.6.9c-1,.6-1.9,1.5-2.5,2.6s-.9,2.4-.9,4v16.9h-4.9.1Z"/>
    <path class="cls-2" d="M546.7,193.7v-6.4h4.9v6.4h-4.9ZM546.7,226.7v-28.6h4.9v28.6h-4.9Z"/>
    <path class="cls-2" d="M567.2,226.7l-11.2-28.6h5.5l9,24.2h-1.9l9-24.2h5.5l-11.2,28.6h-4.7Z"/>
    <path class="cls-2" d="M600.1,227.5c-2.8,0-5.2-.6-7.4-2-2.2-1.3-3.8-3.1-5.1-5.4-1.2-2.3-1.8-4.8-1.8-7.7s.6-5.4,1.8-7.6c1.2-2.2,2.9-4,5-5.3s4.5-1.9,7.1-1.9,4,.4,5.6,1.1,3,1.8,4.2,3.1,2,2.8,2.7,4.4.9,3.4.9,5.1,0,.8,0,1.3-.1.9-.2,1.4h-23.4v-4.2h20.6l-2.3,1.9c.3-1.8.1-3.5-.5-4.9-.7-1.4-1.7-2.6-3-3.4-1.3-.9-2.8-1.3-4.5-1.3s-3.2.4-4.6,1.3-2.5,2.1-3.2,3.6-1.1,3.4-.9,5.6c-.1,2.1.2,3.9,1,5.5s1.9,2.8,3.4,3.7,3.1,1.3,4.8,1.3,3.5-.4,4.8-1.3c1.3-.9,2.4-2,3.2-3.4l4.1,2.1c-.6,1.3-1.4,2.5-2.6,3.6s-2.6,1.9-4.2,2.6c-1.6.6-3.4.9-5.4.9h-.1Z"/>
    <path class="cls-2" d="M619.5,226.7v-28.6h4.8v5.2l-.5-.7c.7-1.6,1.7-2.8,3.1-3.6s3.1-1.2,5-1.2h1.8v4.7h-2.5c-2,0-3.6.6-4.9,1.9s-1.8,3-1.8,5.3v17h-5Z"/>
    <path class="cls-2" d="M648.3,227.5c-2.9,0-5.3-.7-7.5-2.1-2.1-1.4-3.6-3.3-4.5-5.7l3.9-1.9c.8,1.7,1.9,3,3.3,4s3,1.5,4.7,1.5,2.8-.4,3.9-1.1c1-.7,1.5-1.7,1.5-2.9s-.2-1.5-.7-2-1-.9-1.7-1.2-1.3-.5-1.8-.7l-4.3-1.2c-2.6-.7-4.5-1.8-5.6-3.2-1.2-1.4-1.8-3-1.8-4.8s.4-3.2,1.3-4.4,2-2.2,3.5-2.9,3.2-1.1,5.1-1.1,4.8.6,6.8,1.9,3.4,3.1,4.3,5.4l-4,1.9c-.6-1.5-1.6-2.7-2.9-3.5-1.3-.9-2.7-1.3-4.3-1.3s-2.6.4-3.5,1.1c-.8.7-1.3,1.6-1.3,2.7s.2,1.5.6,2,.9.9,1.5,1.2,1.2.5,1.8.7l4.7,1.4c2.3.7,4.1,1.7,5.4,3.1,1.3,1.4,1.9,3.1,1.9,5.1s-.4,3-1.3,4.3-2.1,2.3-3.7,3-3.4,1.1-5.4,1.1h0v-.4Z"/>
    <path class="cls-2" d="M665.1,193.7v-6.4h4.9v6.4h-4.9ZM665.1,226.7v-28.6h4.9v28.6h-4.9Z"/>
    <path class="cls-2" d="M689.3,227.2c-2.8,0-4.9-.8-6.4-2.4-1.5-1.6-2.2-3.8-2.2-6.7v-15.1h-5.2v-4.7h1.1c1.3,0,2.3-.4,3-1.2s1.1-1.8,1.1-3.1v-2.3h4.9v6.6h6.4v4.7h-6.4v14.9c0,.9.2,1.8.5,2.5s.8,1.3,1.5,1.7,1.6.6,2.8.6.6,0,.9,0,.7,0,1-.1v4.4c-.5.1-1,.2-1.5.2h-1.5Z"/>
    <path class="cls-2" d="M700.2,238.5c-.6,0-1.3,0-1.9-.2-.6-.1-1.2-.3-1.8-.5v-4.4c.4,0,.9.1,1.5.2.6,0,1.2.1,1.7.1,1.7,0,2.9-.4,3.8-1.1.9-.7,1.7-2,2.5-3.7l1.8-4.3v4.3c-.1,0-12.3-30.7-12.3-30.7h5.3l9.5,24.4h-1.6l9.4-24.4h5.5l-12.9,32c-.6,1.5-1.4,2.9-2.3,4.2s-2.1,2.2-3.4,3c-1.3.7-2.9,1.1-4.8,1.1h0Z"/>
  </g>
</svg>